<?xml version="1.0" encoding="UTF-8" standalone="no"?>
<svg width="199px" height="85px" viewBox="0 0 199 85" version="1.1" xmlns="http://www.w3.org/2000/svg" xmlns:xlink="http://www.w3.org/1999/xlink" xmlns:sketch="http://www.bohemiancoding.com/sketch/ns">
    <!-- Generator: Sketch 3.3.3 (12072) - http://www.bohemiancoding.com/sketch -->
    <title>logo-desktop</title>
    <desc>Created with Sketch.</desc>
    <defs></defs>
    <g id="Styles" stroke="none" stroke-width="1" fill="none" fill-rule="evenodd" sketch:type="MSPage">
        <g id="Components" sketch:type="MSArtboardGroup" transform="translate(-89.000000, -216.000000)" fill="#FFFFFF">
            <g id="Header-inverted" sketch:type="MSLayerGroup" transform="translate(-1.000000, 166.000000)">
                <g id="navbar-inverted" sketch:type="MSShapeGroup">
                    <g id="logo-desktop" transform="translate(90.000000, 50.000000)">
                        <path d="M42.5684594,84.9188628 C31.2084275,84.9188628 20.5284199,80.5067316 12.495862,72.4956282 C4.46303796,64.4843923 0.0392236391,53.8327776 0.0392236391,42.5030884 C0.0392236391,31.1735315 4.46303796,20.5220497 12.495862,12.5108137 C20.5284199,4.49944495 31.2084275,0.0875791459 42.5684594,0.0875791459 C48.2422881,0.0875791459 53.7527304,1.1844416 58.946378,3.34738111 C59.2316397,3.46627643 59.5146391,3.58795838 59.795909,3.71229421 C61.1820347,4.32601172 61.8068425,5.94410278 61.1914817,7.32639364 C60.5759872,8.70908257 58.9532968,9.33155797 57.5677031,8.71823855 C57.3230222,8.60995888 57.076878,8.50433314 56.8292698,8.40109589 C52.310457,6.51894044 47.511971,5.56459315 42.5684594,5.56459315 C22.1459216,5.56459315 5.53090571,22.135231 5.53090571,42.5030884 C5.53090571,62.8712108 22.1459216,79.4418489 42.5684594,79.4418489 C62.9911302,79.4418489 79.6060129,62.8712108 79.6060129,42.5030884 C79.6060129,37.5973292 78.6580241,32.8335544 76.7885237,28.3444597 C76.6207464,27.941463 76.4431233,27.5358123 76.2609764,27.139583 C75.6297822,25.7644577 76.2356968,24.1390684 77.6145046,23.5094274 C78.9930466,22.8800518 80.6226559,23.4840825 81.2542492,24.8592078 C81.4631394,25.314354 81.6668407,25.7798504 81.8598975,26.2429583 C84.0085391,31.4020335 85.097695,36.872678 85.097695,42.5030884 C85.097695,53.8327776 80.6738807,64.4843923 72.6411896,72.4956282 C64.6086317,80.5067316 53.9283577,84.9188628 42.5684594,84.9188628 Z M76.4083968,18.0062724 C76.4083968,19.518605 75.1790051,20.744713 73.6626226,20.744713 C72.1461064,20.744713 70.9167148,19.518605 70.9167148,18.0062724 C70.9167148,16.4938071 72.1461064,15.267699 73.6626226,15.267699 C75.1790051,15.267699 76.4083968,16.4938071 76.4083968,18.0062724 Z M69.709809,11.2841748 C69.709809,12.7966402 68.480417,14.0226155 66.9639012,14.0226155 C65.4475186,14.0226155 64.218127,12.7966402 64.218127,11.2841748 C64.218127,9.77170953 65.4475186,8.54560148 66.9639012,8.54560148 C68.480417,8.54560148 69.709809,9.77170953 69.709809,11.2841748 Z" id="Fill-1"></path>
                        <path d="M62.5551216,40.6196058 L62.5545895,40.6196058 C62.5488685,34.3998942 57.4736362,29.341535 51.2358038,29.341535 C47.811602,29.341535 44.7401186,30.8680661 42.6627925,33.2719809 C40.5854665,30.8680661 37.5139831,29.341535 34.0897813,29.341535 C27.8519488,29.341535 22.7768496,34.3998942 22.7709954,40.6196058 L22.7708623,40.6196058 L22.7708623,40.6280985 C22.7708623,40.628762 22.7707292,40.629558 22.7707292,40.6302214 L22.7708623,40.6302214 L22.7708623,52.9719809 L22.7708623,52.9725117 C22.7708623,54.4851095 24.0003871,55.7113506 25.517169,55.7113506 C27.0338179,55.7113506 28.2633427,54.4851095 28.2633427,52.9725117 C28.2633427,52.9702559 28.2630766,52.9681326 28.2630766,52.9658771 L28.2630766,40.6196058 L28.2626774,40.6196058 C28.2685317,37.4199152 30.8801908,34.818549 34.0897813,34.818549 C37.2995048,34.818549 39.9111637,37.420313 39.9167518,40.6201366 L39.9167518,52.9719809 L39.9167518,52.9725117 C39.9167518,54.4851095 41.1462767,55.7113506 42.6629255,55.7113506 C44.1797075,55.7113506 45.4092321,54.4851095 45.4092321,52.9725117 C45.4092321,52.9703885 45.4089662,52.9685308 45.4089662,52.9665405 L45.4089662,40.6197384 C45.4146872,37.4200478 48.0262132,34.818549 51.2358038,34.818549 C54.4455272,34.818549 57.0571861,37.4199152 57.0629075,40.6196058 L57.0629075,52.9649481 C57.0629075,52.9674692 57.0625083,52.9699906 57.0625083,52.9725117 C57.0625083,54.4851095 58.2920329,55.7113506 59.808815,55.7113506 C61.3254641,55.7113506 62.5549887,54.4851095 62.5549887,52.9725117 L62.5549887,52.9719809 L62.5551216,52.9719809 L62.5551216,40.6196058" id="Fill-4"></path>
                        <g id="Group-Copy" transform="translate(98.494949, 33.000000)">
                            <path d="M24.2471839,4.75091491 C24.5314035,3.83086945 24.9583456,3.02724909 25.5276019,2.33923273 C26.0964496,1.65135309 26.8122417,1.11574291 27.6749781,0.731307636 C28.537306,0.347556364 29.5288741,0.155065091 30.6492739,0.155065091 C31.5028859,0.155065091 32.3164593,0.289412 33.0898579,0.556875273 C33.8635289,0.825022182 34.5436403,1.20932073 35.1303284,1.70949745 C35.7174249,2.20967382 36.1842695,2.82600182 36.5309985,3.55820764 C36.8777271,4.29096073 37.0510914,5.11264 37.0510914,6.02392982 C37.0510914,6.97065345 36.8997893,7.78357673 36.5975931,8.46229018 C36.2951247,9.14141382 35.8947387,9.74447127 35.3972523,10.2707782 C34.899085,10.79818 34.3344591,11.2756458 33.7035107,11.7048182 C33.0718814,12.1334429 32.4363027,12.5579636 31.7960937,12.9772855 C31.1561571,13.3977018 30.5332437,13.8483535 29.9288515,14.3304709 C29.324187,14.8131356 28.7907476,15.376108 28.3285333,16.0187033 L37.1578612,16.0187033 L37.1578612,19.2880458 L23.4468205,19.2880458 C23.4468205,18.1987669 23.6023446,17.251496 23.9138013,16.4478756 C24.2245771,15.6435709 24.6474337,14.9247724 25.1808731,14.2903858 C25.7143125,13.6564091 26.3413115,13.0714105 27.0614615,12.5352535 C27.7814753,11.999096 28.5419363,11.4547298 29.3421635,10.9006502 C29.7508568,10.6149916 30.1865149,10.3242709 30.6492739,10.0299931 C31.1114882,9.735168 31.5335277,9.40956073 31.9162095,9.05194 C32.2984828,8.69486655 32.6186554,8.29237236 32.8764549,7.84582545 C33.1341183,7.39982545 33.2632223,6.89034582 33.2632223,6.31875491 C33.2632223,5.40746509 33.0006563,4.69742255 32.4764775,4.18794291 C31.951754,3.67914727 31.2802223,3.42440764 30.4622909,3.42440764 C29.910875,3.42440764 29.4443028,3.55410327 29.0620295,3.81294727 C28.6793477,4.07220182 28.3725213,4.41190036 28.1418227,4.83108545 C27.910307,5.25095455 27.7459309,5.71569745 27.6484219,6.22449309 C27.550232,6.73397236 27.5016137,7.23866364 27.5016137,7.73884 L23.8737627,7.73884 C23.8379459,6.66707236 23.962692,5.670824 24.2471839,4.75091491" id="Fill-6"></path>
                            <path d="M96.6801389,5.43414291 L100.468144,5.43414291 L100.468144,19.2880458 L96.6801389,19.2880458 L96.6801389,5.43414291 L96.6801389,5.43414291 Z M96.6801389,0.155065091 L100.468144,0.155065091 L100.468144,3.29006036 L96.6801389,3.29006036 L96.6801389,0.155065091 L96.6801389,0.155065091 Z" id="Fill-12"></path>
                            <path d="M43.3729683,5.43414291 L43.3729683,7.309668 L43.4263528,7.309668 C43.9238394,6.59552109 44.5241459,6.041852 45.2268642,5.64879745 C45.9290378,5.25560618 46.7340314,5.05914727 47.6407557,5.05914727 C48.512072,5.05914727 49.3079411,5.22892836 50.0283634,5.56794291 C50.7485137,5.90750473 51.2952993,6.50591055 51.6685841,7.36370764 C52.0776861,6.75654618 52.6333237,6.22038873 53.3357695,5.75578255 C54.0382156,5.29117673 54.8699014,5.05914727 55.8298745,5.05914727 C56.5590129,5.05914727 57.2344939,5.14862109 57.8574075,5.32715782 C58.4797762,5.50569455 59.0132156,5.79190036 59.4577255,6.18440764 C59.9019633,6.57746218 60.2488283,7.09159309 60.4980482,7.72543273 C60.7468595,8.35981964 60.8716055,9.12349164 60.8716055,10.0167225 L60.8716055,19.2880458 L57.0837363,19.2880458 L57.0837363,11.4368076 C57.0837363,10.9720651 57.0657597,10.5348211 57.0304879,10.1237076 C56.9946711,9.71314182 56.8970259,9.35552109 56.7370077,9.05194 C56.5769895,8.74835927 56.3411158,8.50702691 56.0302039,8.32849018 C55.7187471,8.14995345 55.2964351,8.06034291 54.762996,8.06034291 C54.2295565,8.06034291 53.7979839,8.16336073 53.4692315,8.36857527 C53.140207,8.57392691 52.8825436,8.84193709 52.6958331,9.17233273 C52.5091223,9.50313855 52.3843763,9.87827091 52.3221394,10.2975931 C52.2596303,10.7180095 52.2289883,11.1419829 52.2289883,11.5704709 L52.2289883,19.2880458 L48.4411191,19.2880458 L48.4411191,11.5169782 C48.4411191,11.1064124 48.4318585,10.6999505 48.4144268,10.2975931 C48.3965863,9.89564582 48.3210032,9.52530182 48.1878137,9.18560327 C48.0543517,8.84658873 47.8318245,8.57392691 47.5210487,8.36857527 C47.2095919,8.16336073 46.751327,8.06034291 46.147071,8.06034291 C45.9690762,8.06034291 45.7337474,8.10056509 45.4402672,8.18073564 C45.1466506,8.26104291 44.8621589,8.41344909 44.5866553,8.63617527 C44.3108793,8.859996 44.0752777,9.18163564 43.8798512,9.60082073 C43.6838802,10.0206898 43.586371,10.5702549 43.586371,11.248968 L43.586371,19.2880458 L39.7985019,19.2880458 L39.7985019,5.43414291 L43.3729683,5.43414291" id="Fill-7"></path>
                            <path d="M67.0246122,13.9955607 C67.131109,14.5229622 67.3134619,14.996324 67.5712613,15.4161931 C67.8289247,15.8360622 68.1715678,16.1709724 68.5982379,16.4210607 C69.0251801,16.6711491 69.5586195,16.7961931 70.1988283,16.7961931 C70.8390375,16.7961931 71.3765625,16.6711491 71.8124928,16.4210607 C72.2480146,16.1709724 72.5947436,15.8360622 72.8529516,15.4161931 C73.1106149,14.996324 73.2929677,14.5229622 73.3997371,13.9955607 C73.5065069,13.4692535 73.5597553,12.9284444 73.5597553,12.3747753 C73.5597553,11.8211065 73.5065069,11.2756458 73.3997371,10.7400356 C73.2929677,10.2038782 73.1106149,9.73106364 72.8529516,9.31940327 C72.5947436,8.90883709 72.2480146,8.57392691 71.8124928,8.31453564 C71.3765625,8.05637564 70.8390375,7.925996 70.1988283,7.925996 C69.5586195,7.925996 69.0251801,8.05637564 68.5982379,8.31453564 C68.1715678,8.57392691 67.8289247,8.90883709 67.5712613,9.31940327 C67.3134619,9.73106364 67.131109,10.2038782 67.0246122,10.7400356 C66.9177063,11.2756458 66.8644575,11.8211065 66.8644575,12.3747753 C66.8644575,12.9284444 66.9177063,13.4692535 67.0246122,13.9955607 L67.0246122,13.9955607 L67.0246122,13.9955607 Z M63.5834716,9.36017236 C63.9212121,8.45818582 64.4011306,7.68999891 65.0239078,7.05547527 C65.6462765,6.42163564 66.3929825,5.929668 67.264435,5.58135018 C68.135751,5.23303273 69.1137007,5.05914727 70.1988283,5.05914727 C71.2834113,5.05914727 72.2659912,5.23303273 73.1461593,5.58135018 C74.0266002,5.929668 74.7778003,6.42163564 75.4003054,7.05547527 C76.022674,7.68999891 76.5028647,8.45818582 76.8408777,9.36017236 C77.1783457,10.2620225 77.3476245,11.2668902 77.3476245,12.3747753 C77.3476245,13.482524 77.1783457,14.4828771 76.8408777,15.376108 C76.5028647,16.2693389 76.022674,17.0328738 75.4003054,17.6667135 C74.7778003,18.3011004 74.0266002,18.7884167 73.1461593,19.127568 C72.2659912,19.4665829 71.2834113,19.6363636 70.1988283,19.6363636 C69.1137007,19.6363636 68.135751,19.4665829 67.264435,19.127568 C66.3929825,18.7884167 65.6462765,18.3011004 65.0239078,17.6667135 C64.4011306,17.0328738 63.9212121,16.2693389 63.5834716,15.376108 C63.2453226,14.4828771 63.0765884,13.482524 63.0765884,12.3747753 C63.0765884,11.2668902 63.2453226,10.2620225 63.5834716,9.36017236 L63.5834716,9.36017236 L63.5834716,9.36017236 Z" id="Fill-9"></path>
                            <path d="M89.6650768,10.6865429 C89.5406033,10.1503858 89.3449044,9.677024 89.0783889,9.26591055 C88.8114649,8.85534436 88.4780824,8.52905309 88.078105,8.28772073 C87.677719,8.04707236 87.1933064,7.925996 86.6241862,7.925996 C86.0727705,7.925996 85.592716,8.04707236 85.183614,8.28772073 C84.7743759,8.52905309 84.4369079,8.85534436 84.1701199,9.26591055 C83.9034684,9.677024 83.707497,10.1503858 83.5832956,10.6865429 C83.4585496,11.2221531 83.3967212,11.7851255 83.3967212,12.3747753 C83.3967212,12.9463665 83.4585496,13.5000356 83.5832956,14.0361931 C83.707497,14.5718033 83.9034684,15.0451651 84.1701199,15.4562785 C84.4369079,15.8673916 84.7743759,16.1931356 85.183614,16.434468 C85.592716,16.6752535 86.0727705,16.7961931 86.6241862,16.7961931 C87.1933064,16.7961931 87.677719,16.6752535 88.078105,16.434468 C88.4780824,16.1931356 88.8114649,15.8673916 89.0783889,15.4562785 C89.3449044,15.0451651 89.5406033,14.5718033 89.6650768,14.0361931 C89.7892782,13.5000356 89.8517876,12.9463665 89.8517876,12.3747753 C89.8517876,11.7851255 89.7892782,11.2221531 89.6650768,10.6865429 L89.6650768,10.6865429 L89.6650768,10.6865429 Z M83.5297747,0.155065091 L83.5297747,7.12237527 L83.5832956,7.12237527 C84.0456461,6.40822836 84.6722366,5.88547818 85.4638841,5.55453564 C86.2548508,5.22427673 87.077821,5.05914727 87.9312969,5.05914727 C88.6247545,5.05914727 89.3090876,5.20211345 89.9851132,5.48763564 C90.6607307,5.77384145 91.2697532,6.21108545 91.8124532,6.80073564 C92.3544722,7.39052255 92.7947606,8.14530182 93.1327736,9.06521055 C93.470378,9.98525636 93.6396568,11.0797342 93.6396568,12.3479607 C93.6396568,13.616324 93.470378,14.7102549 93.1327736,15.6301636 C92.7947606,16.5507564 92.3544722,17.3049887 91.8124532,17.8946385 C91.2697532,18.4842887 90.6607307,18.9222167 89.9851132,19.2077385 C89.3090876,19.4932607 88.6247545,19.6363636 87.9312969,19.6363636 C86.9176664,19.6363636 86.0105336,19.4758858 85.2103062,19.1542462 C84.4103513,18.8326062 83.8054147,18.2878298 83.3967212,17.5195062 L83.3430642,17.5195062 L83.3430642,19.2880458 L79.742178,19.2880458 L79.742178,0.155065091 L83.5297747,0.155065091 L83.5297747,0.155065091 Z" id="Fill-10"></path>
                            <path d="M5.89493445,0.155065091 L10.349705,13.312196 L10.4029537,13.312196 L14.6179012,0.155065091 L20.5128357,0.155065091 L20.5128357,19.2880458 L16.5917768,19.2880458 L16.5917768,5.728968 L16.5382559,5.728968 L11.8702184,19.2880458 L8.64261724,19.2880458 L3.9745798,5.862768 L3.92133121,5.862768 L3.92133121,19.2880458 L0,19.2880458 L0,0.155065091 L5.89493445,0.155065091" id="Fill-5"></path>
                        </g>
                    </g>
                </g>
            </g>
        </g>
    </g>
</svg>